<?xml version="1.0" encoding="UTF-8" standalone="no"?>
<!-- Created with Inkscape (http://www.inkscape.org/) -->

<svg
   width="297mm"
   height="210mm"
   viewBox="0 0 1122.5197 793.70081"
   version="1.1"
   id="svg1"
   inkscape:version="1.2.2 (b0a8486541, 2022-12-01)"
   sodipodi:docname="logo.svg"
   xmlns:inkscape="http://www.inkscape.org/namespaces/inkscape"
   xmlns:sodipodi="http://sodipodi.sourceforge.net/DTD/sodipodi-0.dtd"
   xmlns="http://www.w3.org/2000/svg"
   xmlns:svg="http://www.w3.org/2000/svg">
  <sodipodi:namedview
     id="namedview1"
     pagecolor="#505050"
     bordercolor="#ffffff"
     borderopacity="1"
     inkscape:showpageshadow="0"
     inkscape:pageopacity="0"
     inkscape:pagecheckerboard="1"
     inkscape:deskcolor="#d1d1d1"
     inkscape:document-units="mm"
     inkscape:zoom="1.0180159"
     inkscape:cx="398.81499"
     inkscape:cy="483.78419"
     inkscape:window-width="1920"
     inkscape:window-height="1011"
     inkscape:window-x="0"
     inkscape:window-y="0"
     inkscape:window-maximized="1"
     inkscape:current-layer="layer1"
     showgrid="false"
     showguides="true">
    <sodipodi:guide
       position="793.82933,234.4011"
       orientation="1,0"
       id="guide542"
       inkscape:locked="false" />
  </sodipodi:namedview>
  <defs
     id="defs1">
    <rect
       x="617.11071"
       y="648.27197"
       width="207.22371"
       height="31.285965"
       id="rect532" />
    <rect
       x="176.58814"
       y="231.46281"
       width="670.92443"
       height="421.94516"
       id="rect1" />
  </defs>
  <g
     inkscape:label="Layer 1"
     inkscape:groupmode="layer"
     id="layer1">
    <g
       id="g598">
      <g
         id="g543">
        <path
           id="rect4"
           style="fill:#000000;-inkscape-stroke:none"
           d="M -6.1389833e-4,-5.3486047e-4 V 151.18111 H 151.18103 V -5.3486047e-4 Z M 75.45056,3.5912621 c 14.062486,0 26.56251,3.0937564 37.5,9.2812499 10.93749,6.124994 19.87501,15.125013 26.8125,27.000001 l -43.96875,16.3125 c -2.312497,-3.812496 -5.093753,-6.656252 -8.34375,-8.53125 -3.249997,-1.874998 -6.968754,-2.8125 -11.15625,-2.8125 -7.312493,0 -13.156255,2.781256 -17.531251,8.34375 -4.312495,5.562495 -6.46875,13.03126 -6.46875,22.406251 0,9.68749 2.187505,17.218756 6.5625,22.59375 4.374996,5.312496 10.562509,7.968746 18.562501,7.968746 4.749995,0 8.593753,-1 11.53125,-3 2.999997,-1.99999 4.781251,-4.781249 5.34375,-8.343746 H 72.82556 V 62.560013 h 75.84375 c 0.125,2.812498 0.21875,4.906252 0.28125,6.281251 0.0625,1.374998 0.0937,2.593751 0.0937,3.65625 0,7.874992 -0.75,15.062507 -2.25,21.5625 -1.5,6.499996 -3.6875,12.250006 -6.5625,17.249996 -6.99999,11.74999 -16.03126,20.75001 -27.09375,27.00001 -11.06249,6.18749 -23.625014,9.28125 -37.6875,9.28125 -10.37499,0 -20.03126,-1.71876 -28.968751,-5.15625 -8.874991,-3.5 -16.750007,-8.62501 -23.625,-15.375 -6.812494,-6.75 -11.968754,-14.46876 -15.4687508,-23.15626 C 3.8880617,95.216273 2.138058,85.778754 2.138058,75.591264 c 0,-10.24999 1.7500037,-19.71876 5.2500002,-28.406251 C 10.950555,38.435022 16.106815,30.747506 22.856809,24.122513 29.669302,17.435019 37.544318,12.341259 46.481809,8.8412622 55.4193,5.3412657 65.07557,3.5912621 75.45056,3.5912621 Z"
           transform="translate(410.07873,192.17247)" />
        <path
           id="rect4-4"
           style="fill:none"
           d="m 151.18111,0 h 151.1811 v 151.18111 h -151.1811 z"
           transform="translate(410.07873,197.2271)" />
        <path
           id="rect4-7"
           style="fill:none"
           d="m 0,151.18111 h 151.18111 v 151.1811 H 0 Z"
           transform="translate(410.07872,197.2271)" />
        <path
           id="rect4-2"
           style="fill:#000000;-inkscape-stroke:none"
           d="M 151.18103,151.18111 V 302.36275 H 302.36267 V 151.18111 Z m 17.23047,6.96484 h 65.71875 c 14.06249,0 25.03126,3.31251 32.90625,9.9375 7.87499,6.5625 11.8125,15.71877 11.8125,27.46875 0,7.5 -1.875,13.75001 -5.625,18.75 -3.68749,4.9375 -8.93751,8.15626 -15.75,9.65625 9.31249,1.9375 16.25001,5.59376 20.8125,10.96876 4.5625,5.37499 6.84375,12.59375 6.84375,21.65625 0,12.81248 -4.34376,22.5 -13.03125,29.0625 -8.62499,6.49999 -21.34377,9.75 -38.15625,9.75 H 168.4115 Z m 46.3125,32.625 v 19.21875 h 6.46875 c 4,0 7.03125,-0.8125 9.09375,-2.4375 2.125,-1.68749 3.1875,-4.09375 3.1875,-7.21875 0,-3.12499 -1.0625,-5.5 -3.1875,-7.125 -2.0625,-1.62499 -5.09375,-2.4375 -9.09375,-2.4375 z m 0,48.75001 v 21.9375 h 8.25 c 4.9375,0 8.71875,-0.93751 11.34375,-2.8125 2.6875,-1.9375 4.03125,-4.65626 4.03125,-8.15625 0,-3.5625 -1.34375,-6.28126 -4.03125,-8.15625 -2.625,-1.875 -6.40625,-2.8125 -11.34375,-2.8125 z"
           transform="translate(410.07873,192.17247)" />
        <path
           d="m 58.949928,253.49042 q 16.6875,-0.0937 24.375,-6.46875 7.6875,-6.46875 7.6875,-20.15625 0,-13.40625 -7.40625,-19.96875 -7.3125,-6.5625 -22.5,-6.5625 h -2.15625 z m -48.9375,41.90625 v -137.25 h 39.9375 q 19.03125,0 32.4375,2.15625 13.5,2.0625 21.937502,6.46875 17.8125,9.375 27.28125,24.84375 9.5625,15.46875 9.5625,35.25 0,19.6875 -9.46875,35.0625 -9.46875,15.375 -27.375,24.84375 -8.718752,4.5 -22.125002,6.5625 -13.40625,2.0625 -35.90625,2.0625 z"
           style="font-size:192px;line-height:1.25;font-family:'Futura XBlk BT';-inkscape-font-specification:'Futura XBlk BT';letter-spacing:0px;word-spacing:0px"
           id="path319"
           transform="translate(410.07873,192.17247)" />
        <path
           d="M 178.06854,144.21556 V 6.9655609 h 49.40625 V 99.684311 h 48 v 44.531249 z"
           style="font-size:192px;line-height:1.25;font-family:'Futura XBlk BT';-inkscape-font-specification:'Futura XBlk BT';letter-spacing:0px;word-spacing:0px"
           id="path322"
           transform="translate(410.07873,192.17247)" />
      </g>
      <g
         id="g567">
        <path
           d="m -59.662643,341.94751 h 25.453125 q 0,0.51562 0.04687,1.59375 0.04687,1.03125 0.04687,1.54687 0,17.15625 -6.328125,26.76563 -6.28125,9.60937 -17.390625,9.60937 -10.828125,0 -17.15625,-9.375 -6.328125,-9.42187 -6.328125,-25.64062 0,-16.35938 6.5625,-25.73438 6.5625,-9.42187 17.90625,-9.42187 7.6875,0 13.03125,4.5 5.390625,4.5 7.875,13.07812 l -12.28125,5.67188 q -0.796875,-5.10938 -3.046875,-7.64063 -2.203125,-2.53125 -5.859375,-2.53125 -5.484375,0 -8.0625,5.34375 -2.53125,5.29688 -2.53125,16.73438 0,10.92187 2.671875,16.54687 2.71875,5.625 7.921875,5.625 4.546875,0 7.078125,-3.79687 2.578125,-3.84375 2.578125,-10.78125 h -12.1875 z"
           style="font-size:96px;line-height:1.25;font-family:'Futura BdCn BT';-inkscape-font-specification:'Futura BdCn BT';letter-spacing:0px;word-spacing:0px"
           id="path292"
           transform="translate(410.07873,192.17247)" />
        <path
           d="m -26.334518,380.61938 v -45.98437 h 11.8125 v 8.15625 q 1.546875,-4.5 4.125,-6.70313 2.5781246,-2.25 6.2343746,-2.29687 v 12.09375 h -0.84375 q -5.0156246,0 -6.8437496,2.39062 -1.78125,2.34375 -1.78125,10.73438 v 21.60937 z"
           style="font-size:96px;line-height:1.25;font-family:'Futura BdCn BT';-inkscape-font-specification:'Futura BdCn BT';letter-spacing:0px;word-spacing:0px"
           id="path294"
           transform="translate(410.07873,192.17247)" />
        <path
           d="m 17.868607,370.35376 q 3.375,0 5.203125,-3.32813 1.875,-3.375 1.875,-9.5625 0,-6.14062 -1.875,-9.46875 -1.828125,-3.375 -5.203125,-3.375 -3.375,0 -5.203125,3.32813 -1.828125,3.32812 -1.828125,9.51562 0,6.23438 1.828125,9.5625 1.828125,3.32813 5.203125,3.32813 z m 19.171875,-12.79688 q 0,10.96875 -5.25,17.4375 -5.203125,6.46875 -13.921875,6.46875 -8.7656254,0 -13.9687504,-6.42187 -5.15625,-6.46875 -5.15625,-17.48438 0,-10.92187 5.15625,-17.34375 5.203125,-6.42187 13.9687504,-6.42187 8.765625,0 13.96875,6.46875 5.203125,6.42187 5.203125,17.29687 z"
           style="font-size:96px;line-height:1.25;font-family:'Futura BdCn BT';-inkscape-font-specification:'Futura BdCn BT';letter-spacing:0px;word-spacing:0px"
           id="path296"
           transform="translate(410.07873,192.17247)" />
        <path
           d="m 67.931107,347.71313 q -1.5,-1.125 -2.90625,-1.64062 -1.40625,-0.51563 -2.8125,-0.51563 -3.65625,0 -5.8125,3.1875 -2.15625,3.14063 -2.15625,8.53125 0,5.67188 2.15625,8.76563 2.203125,3.04687 6.1875,3.04687 1.5,0 2.8125,-0.5625 1.3125,-0.60937 2.53125,-1.82812 v 12.09375 q -1.96875,1.35937 -4.171875,2.01562 -2.15625,0.65625 -4.546875,0.65625 -8.0625,0 -12.84375,-6.42187 -4.734375,-6.42188 -4.734375,-17.48438 0,-10.92187 4.78125,-17.34375 4.78125,-6.42187 12.796875,-6.42187 2.296875,0 4.453125,0.46875 2.15625,0.42187 4.265625,1.3125 z"
           style="font-size:96px;line-height:1.25;font-family:'Futura BdCn BT';-inkscape-font-specification:'Futura BdCn BT';letter-spacing:0px;word-spacing:0px"
           id="path298"
           transform="translate(410.07873,192.17247)" />
        <path
           d="m 97.790482,353.71313 q -0.140625,-5.01562 -1.828125,-7.40625 -1.640625,-2.4375 -4.96875,-2.4375 -3.28125,0 -5.015625,2.53125 -1.734375,2.53125 -1.734375,7.35938 z m -13.546875,7.3125 v 0.375 q 0,5.15625 1.828125,7.92188 1.828125,2.76562 5.203125,2.76562 2.15625,0 3.65625,-1.3125 1.546875,-1.3125 2.484375,-3.98437 h 10.921878 q -1.5,6.89062 -6.23438,10.78125 -4.687498,3.89062 -11.531248,3.89062 -8.578125,0 -13.640625,-6.42187 -5.0625,-6.42188 -5.0625,-17.34375 0,-11.0625 5.0625,-17.48438 5.0625,-6.42187 13.640625,-6.42187 9.09375,0 13.734378,6.32812 4.64062,6.32813 4.64062,18.70313 v 2.20312 z"
           style="font-size:96px;line-height:1.25;font-family:'Futura BdCn BT';-inkscape-font-specification:'Futura BdCn BT';letter-spacing:0px;word-spacing:0px"
           id="path300"
           transform="translate(410.07873,192.17247)" />
        <path
           d="m 115.46236,380.61938 v -45.98437 h 11.8125 v 8.15625 q 1.54687,-4.5 4.125,-6.70313 2.57812,-2.25 6.23437,-2.29687 v 12.09375 h -0.84375 q -5.01562,0 -6.84375,2.39062 -1.78125,2.34375 -1.78125,10.73438 v 21.60937 z"
           style="font-size:96px;line-height:1.25;font-family:'Futura BdCn BT';-inkscape-font-specification:'Futura BdCn BT';letter-spacing:0px;word-spacing:0px"
           id="path302"
           transform="translate(410.07873,192.17247)" />
        <path
           d="m 144.66548,399.13501 5.67188,-18.51563 -11.90625,-45.98437 h 12.46875 l 4.45312,20.39062 q 0.375,1.92188 0.60938,4.125 0.28125,2.20313 0.32812,4.45313 0.60938,-5.01563 0.84375,-6.70313 0.28125,-1.6875 0.51563,-2.71875 l 4.21875,-19.54687 h 12.46875 l -17.29688,64.5 z"
           style="font-size:96px;line-height:1.25;font-family:'Futura BdCn BT';-inkscape-font-specification:'Futura BdCn BT';letter-spacing:0px;word-spacing:0px"
           id="path304"
           transform="translate(410.07873,192.17247)" />
        <path
           d="m 179.25923,380.61938 v -68.4375 h 13.5 v 55.07813 h 15.5625 v 13.35937 z"
           style="font-size:96px;line-height:1.25;font-family:'Futura BdCn BT';-inkscape-font-specification:'Futura BdCn BT';letter-spacing:0px;word-spacing:0px"
           id="path306"
           transform="translate(410.07873,192.17247)" />
        <path
           d="m 212.35298,322.35376 q 0,-3.14063 2.0625,-5.25 2.10938,-2.15625 5.25,-2.15625 3,0 5.10938,2.15625 2.15625,2.15625 2.15625,5.25 0,3 -2.10938,5.10937 -2.10937,2.0625 -5.15625,2.0625 -3.14062,0 -5.25,-2.01562 -2.0625,-2.0625 -2.0625,-5.15625 z m 0.9375,58.26562 v -45.98437 h 12.70313 v 45.98437 z"
           style="font-size:96px;line-height:1.25;font-family:'Futura BdCn BT';-inkscape-font-specification:'Futura BdCn BT';letter-spacing:0px;word-spacing:0px"
           id="path308"
           transform="translate(410.07873,192.17247)" />
        <path
           d="m 232.22798,376.68188 5.25,-9.32812 q 2.34375,1.54687 4.07813,2.29687 1.73437,0.70313 3.14062,0.70313 1.45313,0 2.39063,-0.9375 0.98437,-0.9375 0.98437,-2.34375 0,-2.4375 -4.6875,-5.34375 -1.21875,-0.75 -1.875,-1.17188 -4.5,-3.04687 -6.32812,-5.90625 -1.82813,-2.90625 -1.82813,-6.84375 0,-6.46875 4.03125,-10.21875 4.03125,-3.79687 10.875,-3.79687 3.42188,0 6.51563,0.98437 3.14062,0.9375 6.04687,2.95313 l -5.39062,9.09375 q -1.82813,-1.54688 -3.42188,-2.29688 -1.54687,-0.75 -2.90625,-0.75 -1.54687,0 -2.53125,0.84375 -0.9375,0.84375 -0.9375,2.20313 0,2.01562 4.35938,4.6875 1.35937,0.84375 2.10937,1.35937 4.875,3.375 6.79688,6.42188 1.92187,3 1.92187,7.125 0,6.70312 -4.40625,10.875 -4.40625,4.17187 -11.53125,4.17187 -3.46875,0 -6.60937,-1.17187 -3.14063,-1.17188 -6.04688,-3.60938 z"
           style="font-size:96px;line-height:1.25;font-family:'Futura BdCn BT';-inkscape-font-specification:'Futura BdCn BT';letter-spacing:0px;word-spacing:0px"
           id="path310"
           transform="translate(410.07873,192.17247)" />
        <path
           d="m 269.07173,380.61938 v -36.09375 h -5.01562 v -9.89062 h 5.01562 v -13.26563 h 12.65625 v 13.26563 h 5.01563 v 9.89062 h -5.01563 v 36.09375 z"
           style="font-size:96px;line-height:1.25;font-family:'Futura BdCn BT';-inkscape-font-specification:'Futura BdCn BT';letter-spacing:0px;word-spacing:0px"
           id="path312"
           transform="translate(410.07873,192.17247)" />
        <path
           d="m 306.66548,367.96313 h 1.07813 q 7.26562,0 11.10937,-5.4375 3.84375,-5.48437 3.84375,-15.89062 0,-11.15625 -3.75,-16.54688 -3.70312,-5.4375 -11.39062,-5.4375 h -0.89063 z m -13.5,12.65625 v -68.4375 h 11.71875 q 15.84375,0 23.625,8.48438 7.82813,8.48437 7.82813,25.78125 0,10.40625 -2.85938,17.4375 -2.85937,7.03125 -8.95312,11.625 -3.60938,2.76562 -8.20313,3.9375 -4.54687,1.17187 -12.89062,1.17187 z"
           style="font-size:96px;line-height:1.25;font-family:'Futura BdCn BT';-inkscape-font-specification:'Futura BdCn BT';letter-spacing:0px;word-spacing:0px"
           id="path314"
           transform="translate(410.07873,192.17247)" />
        <path
           d="m 358.04048,340.58813 h 1.45313 q 5.25,0 7.6875,-2.0625 2.48437,-2.0625 2.48437,-6.375 0,-4.54687 -2.53125,-6.70312 -2.48437,-2.15625 -7.73437,-2.15625 h -1.35938 z m 0,27.84375 q 0.32813,0 0.9375,0.0469 0.65625,0.0469 0.98438,0.0469 5.25,0 7.59375,-2.10937 2.39062,-2.10938 2.39062,-6.70313 0,-4.92187 -2.39062,-7.03125 -2.39063,-2.10937 -7.875,-2.10937 h -1.64063 z m -13.21875,12.1875 v -68.4375 h 13.3125 q 13.40625,0 18.9375,4.21875 5.57813,4.17188 5.57813,14.01563 0,5.57812 -2.10938,9.1875 -2.10937,3.60937 -6.5625,5.76562 4.96875,1.78125 7.3125,5.625 2.39063,3.79688 2.39063,10.03125 0,4.64063 -1.54688,8.4375 -1.54687,3.75 -4.5,6.375 -2.95312,2.57813 -7.125,3.70313 -4.125,1.07812 -13.03125,1.07812 z"
           style="font-size:96px;line-height:1.25;font-family:'Futura BdCn BT';-inkscape-font-specification:'Futura BdCn BT';letter-spacing:0px;word-spacing:0px"
           id="path316"
           transform="translate(410.07873,192.17247)" />
        <path
           d="m 314.4819,395.6806 q -0.75,0 -1.10156,0.75 -0.33984,0.73828 -0.33984,2.36719 0,1.76953 0.32812,2.54297 0.32813,0.77344 1.06641,0.77344 0.70312,0 1.03125,-0.8086 0.33984,-0.82031 0.33984,-2.55468 0,-1.61719 -0.3164,-2.34375 -0.31641,-0.72657 -1.00782,-0.72657 z m -4.46484,9.04688 v -18.16406 h 3.04687 v 8.29687 q 0.51563,-0.87891 1.125,-1.3125 0.6211,-0.43359 1.3711,-0.43359 1.66406,0 2.51953,1.55859 0.86719,1.55859 0.86719,4.55859 0,2.69532 -0.89063,4.21875 -0.8789,1.51172 -2.41406,1.51172 -0.84375,0 -1.5,-0.48047 -0.64453,-0.49218 -1.07813,-1.42968 v 1.67578 z"
           style="font-size:24px;line-height:1.25;font-family:'Futura BdCn BT';-inkscape-font-specification:'Futura BdCn BT';letter-spacing:0px;word-spacing:0px"
           id="path325"
           transform="translate(410.07873,192.17247)" />
        <path
           d="m 321.27878,409.35638 1.41797,-4.6289 -2.97657,-11.4961 h 3.11719 l 1.11328,5.09766 q 0.0937,0.48047 0.15235,1.03125 0.0703,0.55078 0.082,1.11328 0.15234,-1.2539 0.21094,-1.67578 0.0703,-0.42187 0.1289,-0.67969 l 1.05469,-4.88672 h 3.11719 l -4.32422,16.125 z"
           style="font-size:24px;line-height:1.25;font-family:'Futura BdCn BT';-inkscape-font-specification:'Futura BdCn BT';letter-spacing:0px;word-spacing:0px"
           id="path327"
           transform="translate(410.07873,192.17247)" />
        <path
           d="m 334.68503,404.12982 v -3.55078 q 0.64453,0.5625 1.26562,0.84375 0.6211,0.28125 1.25391,0.28125 0.86719,0 1.35937,-0.45703 0.50391,-0.45703 0.50391,-1.24219 0,-0.97265 -1.34766,-2.10937 -0.375,-0.31641 -0.5625,-0.49219 -1.57031,-1.40625 -2.15625,-2.51953 -0.58593,-1.125 -0.58593,-2.54297 0,-2.21484 1.24218,-3.57422 1.25391,-1.37109 3.26954,-1.37109 0.71484,0 1.40625,0.21093 0.70312,0.19922 1.47656,0.63282 v 3.02343 q -0.90235,-0.43359 -1.40625,-0.59765 -0.49219,-0.16406 -0.87891,-0.16406 -0.73828,0 -1.20703,0.46875 -0.46875,0.45703 -0.46875,1.20703 0,0.65625 0.35156,1.23047 0.35157,0.5625 1.64063,1.67578 1.72265,1.47656 2.21484,2.46093 0.49219,0.97266 0.49219,2.35547 0,2.33203 -1.32422,3.69141 -1.3125,1.34766 -3.58594,1.34766 -0.86718,0 -1.60547,-0.19922 -0.72656,-0.19922 -1.34765,-0.60938 z"
           style="font-size:24px;line-height:1.25;font-family:'Futura BdCn BT';-inkscape-font-specification:'Futura BdCn BT';letter-spacing:0px;word-spacing:0px"
           id="path329"
           transform="translate(410.07873,192.17247)" />
        <path
           d="m 344.56393,404.72748 v -9.02344 h -1.2539 v -2.47266 h 1.2539 v -3.3164 h 3.16407 v 3.3164 h 1.2539 v 2.47266 h -1.2539 v 9.02344 z"
           style="font-size:24px;line-height:1.25;font-family:'Futura BdCn BT';-inkscape-font-specification:'Futura BdCn BT';letter-spacing:0px;word-spacing:0px"
           id="path331"
           transform="translate(410.07873,192.17247)" />
        <path
           d="m 350.41159,404.72748 v -11.4961 h 2.95313 v 2.03907 q 0.38671,-1.125 1.03125,-1.67578 0.64453,-0.5625 1.55859,-0.57422 v 3.02343 h -0.21094 q -1.2539,0 -1.71094,0.59766 -0.44531,0.58594 -0.44531,2.68359 v 5.40235 z"
           style="font-size:24px;line-height:1.25;font-family:'Futura BdCn BT';-inkscape-font-specification:'Futura BdCn BT';letter-spacing:0px;word-spacing:0px"
           id="path333"
           transform="translate(410.07873,192.17247)" />
        <path
           d="m 361.46237,402.16107 q 0.84375,0 1.30078,-0.83203 0.46875,-0.84375 0.46875,-2.39062 0,-1.53516 -0.46875,-2.36719 -0.45703,-0.84375 -1.30078,-0.84375 -0.84375,0 -1.30078,0.83203 -0.45703,0.83203 -0.45703,2.37891 0,1.55859 0.45703,2.39062 0.45703,0.83203 1.30078,0.83203 z m 4.79297,-3.19922 q 0,2.74219 -1.3125,4.35938 -1.30078,1.61719 -3.48047,1.61719 -2.1914,0 -3.49219,-1.60547 -1.28906,-1.61719 -1.28906,-4.3711 0,-2.73047 1.28906,-4.33593 1.30079,-1.60547 3.49219,-1.60547 2.19141,0 3.49219,1.61718 1.30078,1.60547 1.30078,4.32422 z"
           style="font-size:24px;line-height:1.25;font-family:'Futura BdCn BT';-inkscape-font-specification:'Futura BdCn BT';letter-spacing:0px;word-spacing:0px"
           id="path335"
           transform="translate(410.07873,192.17247)" />
        <path
           d="m 366.99362,404.72748 3.31641,-8.92969 h -3.04688 v -2.56641 h 7.14844 l -3.25781,8.73047 h 3.02344 v 2.76563 z"
           style="font-size:24px;line-height:1.25;font-family:'Futura BdCn BT';-inkscape-font-specification:'Futura BdCn BT';letter-spacing:0px;word-spacing:0px"
           id="path337"
           transform="translate(410.07873,192.17247)" />
        <path
           d="m 376.26315,409.35638 1.41797,-4.6289 -2.97656,-11.4961 h 3.11719 l 1.11328,5.09766 q 0.0937,0.48047 0.15234,1.03125 0.0703,0.55078 0.082,1.11328 0.15235,-1.2539 0.21094,-1.67578 0.0703,-0.42187 0.12891,-0.67969 l 1.05468,-4.88672 h 3.11719 l -4.32422,16.125 z"
           style="font-size:24px;line-height:1.25;font-family:'Futura BdCn BT';-inkscape-font-specification:'Futura BdCn BT';letter-spacing:0px;word-spacing:0px"
           id="path339"
           transform="translate(410.07873,192.17247)" />
      </g>
    </g>
  </g>
</svg>
